<?xml version="1.0" encoding="UTF-8"?>
<svg id="Layer_1" xmlns="http://www.w3.org/2000/svg" version="1.1" viewBox="0 0 321 53">
  <!-- Generator: Adobe Illustrator 30.0.0, SVG Export Plug-In . SVG Version: 2.1.1 Build 123)  -->
  <defs>
    <style>
      .st0 {
        fill: #fff;
      }
    </style>
  </defs>
  <path class="st0" d="M27.35,2.95h2.7c.65,0,1,.35,1,1v35.95c0,.65-.35,1-1,1h-2.7c-.65,0-1-.35-1-1v-2.65c-1.1,2.45-3.35,3.65-7.9,3.65h-6c-8.35,0-10.35-3.7-10.35-10.95v-6.05c0-7.45,2-11.1,10.35-11.1h6c4.55,0,6.8,1.2,7.9,3.65V3.95c0-.65.35-1,1-1ZM26.35,30.3v-6.8c0-5.35-1.8-6.25-5.7-6.25h-8.1c-4.65,0-5.75,1.1-5.75,6.25v6.8c0,5.05,1.1,6.15,5.75,6.15h8.1c3.9,0,5.7-.9,5.7-6.15Z"/>
  <path class="st0" d="M54,12.8c.65,0,1,.35,1,1v2.45c0,.65-.35,1-1,1h-6.8c-3.95,0-5.75.9-5.75,6.25v16.4c0,.65-.35,1-1,1h-2.7c-.65,0-1-.35-1-1V13.8c0-.65.35-1,1-1h2.7c.65,0,1,.35,1,1v2.65c1.1-2.45,3.4-3.65,7.95-3.65h4.6Z"/>
  <path class="st0" d="M56.65,29.8v-6.05c0-7.25,2-10.95,10.35-10.95h8.3c8.35,0,10.35,3.7,10.35,10.95v6.05c0,7.45-2,11.1-10.35,11.1h-8.3c-8.35,0-10.35-3.65-10.35-11.1ZM75.2,36.45c4.65,0,5.75-1.1,5.75-6.25v-6.8c0-5.05-1.1-6.15-5.75-6.15h-8.1c-4.65,0-5.75,1.1-5.75,6.15v6.8c0,5.15,1.1,6.25,5.75,6.25h8.1Z"/>
  <path class="st0" d="M133.5,23.9v16.05c0,.65-.35,1-1,1h-2.7c-.65,0-1-.35-1-1v-16.45c0-5.15-1.15-6.25-5.75-6.25h-2.85c-3.95,0-5.75.9-5.75,6.25v16.45c0,.65-.35,1-1,1h-2.7c-.65,0-1-.35-1-1v-16.45c0-5.15-1.1-6.25-5.7-6.25h-2.85c-3.95,0-5.75.9-5.75,6.25v16.4c0,.65-.35,1-1,1h-2.7c-.65,0-1-.35-1-1V13.8c0-.65.35-1,1-1h2.7c.65,0,1,.35,1,1v2.65c1.1-2.45,3.4-3.65,7.95-3.65h1.1c4.75,0,7.55,1.2,8.9,4.05,1.35-2.7,4.05-4.05,8.8-4.05h1.1c8.1,0,10.2,3.65,10.2,11.1Z"/>
  <path class="st0" d="M138.25,29.8v-6.05c0-7.25,2-10.95,10.35-10.95h8.3c8.35,0,10.35,3.7,10.35,10.95v6.05c0,7.45-2,11.1-10.35,11.1h-8.3c-8.35,0-10.35-3.65-10.35-11.1ZM156.8,36.45c4.65,0,5.75-1.1,5.75-6.25v-6.8c0-5.05-1.1-6.15-5.75-6.15h-8.1c-4.65,0-5.75,1.1-5.75,6.15v6.8c0,5.15,1.1,6.25,5.75,6.25h8.1Z"/>
  <path class="st0" d="M172.35,39.9V3.95c0-.65.35-1,1-1h2.7c.65,0,1,.35,1,1v35.95c0,.65-.35,1-1,1h-2.7c-.65,0-1-.35-1-1Z"/>
  <path class="st0" d="M182.15,29.8v-6.05c0-7.25,2-10.95,10.35-10.95h8.3c8.35,0,10.35,3.7,10.35,10.95v6.05c0,7.45-2,11.1-10.35,11.1h-8.3c-8.35,0-10.35-3.65-10.35-11.1ZM200.7,36.45c4.65,0,5.75-1.1,5.75-6.25v-6.8c0-5.05-1.1-6.15-5.75-6.15h-8.1c-4.65,0-5.75,1.1-5.75,6.15v6.8c0,5.15,1.1,6.25,5.75,6.25h8.1Z"/>
  <path class="st0" d="M219.65,49.75v-2.45c0-.65.35-1,1-1h13.4c4.65,0,5.85-1.75,5.85-6.25v-4.1c-1,2.65-3.15,3.9-7.9,3.9h-6c-8.35,0-10.35-3.65-10.35-11.1v-5c0-7.25,2-10.95,10.35-10.95h6c4.75,0,6.9,1.3,7.9,3.9v-2.9c0-.65.35-1,1-1h2.7c.65,0,1,.35,1,1v25.85c0,6.85-2.2,11.1-10.55,11.1h-13.4c-.65,0-1-.35-1-1ZM234.2,35.4c3.9,0,5.7-.85,5.7-6.25v-5.75c0-5.25-1.8-6.15-5.7-6.15h-8.1c-4.65,0-5.75,1.1-5.75,6.15v5.75c0,5.15,1.1,6.25,5.75,6.25h8.1Z"/>
  <path class="st0" d="M250.3,8.7V3.95c0-.65.35-1,1-1h2.7c.65,0,1,.35,1,1v4.75c0,.65-.35,1-1,1h-2.7c-.65,0-1-.35-1-1ZM250.3,39.9V13.8c0-.65.35-1,1-1h2.7c.65,0,1,.35,1,1v26.1c0,.65-.35,1-1,1h-2.7c-.65,0-1-.35-1-1Z"/>
  <path class="st0" d="M260.1,29.8v-6.05c0-7.25,2-10.95,10.35-10.95h8.3c7.55,0,10.15,2.85,10.35,10.15,0,.7-.35,1.05-1,1.05h-2.7c-.65,0-1-.35-1-1.05-.15-4.7-1.2-5.7-5.75-5.7h-8.1c-4.65,0-5.75,1.1-5.75,6.15v6.8c0,5.15,1.1,6.25,5.75,6.25h8.1c4.65,0,5.65-1.1,5.75-5.8,0-.7.35-1.05,1-1.05h2.7c.65,0,1,.35,1,1.05-.25,7.55-2.9,10.25-10.35,10.25h-8.3c-8.35,0-10.35-3.65-10.35-11.1Z"/>
  <path class="st0" d="M293.2,39.9v-2.45c0-.65.35-1,1-1h14.3c4.45,0,5.7-.9,5.7-3.45s-.85-3.2-4.9-3.6l-8.4-.85c-6.4-.65-8.3-3.1-8.3-8.1,0-5.25,3.05-7.65,10.05-7.65h13.9c.65,0,1,.35,1,1v2.45c0,.65-.35,1-1,1h-13.8c-4.05,0-5.45,1-5.45,3.55,0,2.35.75,3.05,4.4,3.45l8.3.9c7.2.8,8.95,3.4,8.95,8.25,0,5.45-3,7.5-10.5,7.5h-14.25c-.65,0-1-.35-1-1Z"/>
</svg>